<svg width="116" height="10" viewBox="0 0 116 10" fill="none" xmlns="http://www.w3.org/2000/svg">
<rect width="116" height="10" fill="#E5E5E5"/>
<g id="Desktop" clip-path="url(#clip0_0_1)">
<rect width="1920" height="7514" transform="translate(-770 -120)" fill="white"/>
<g id="background rectangle">
<rect id="Rectangle 13" opacity="0.09" x="-770" y="-120" width="1920" height="7514" fill="#3BD1BB"/>
</g>
<g id="Hero section" clip-path="url(#clip1_0_1)">
<g id="BG vector ">
<g id="Frame 14">
<g id="Group 1">
<g id="Frame" opacity="0.5" clip-path="url(#clip2_0_1)">
<path id="Vector" d="M-474.088 988.105C-295.717 943.026 -117.694 852.564 62.2951 886.845C197.968 912.108 317.662 1007.28 456.012 1010.08C597.213 1013.11 718.826 921.268 847.412 863.861C975.997 806.455 1156.24 798.558 1228.85 918.934C1361.16 584.813 1518.43 261.31 1698.77 -49.4286C1218.94 -275.177 723.413 -466.306 217.519 -621.524C65.5242 -668.481 -100.352 -710.526 -248.891 -654.724C-420.325 -588.994 -727.909 -519.455 -803.5 -351C-936.97 -55.7257 -848.134 358.929 -937.626 670.945C-1020.99 963.934 -722.24 1051.68 -474.088 988.105Z" fill="url(#paint0_linear_0_1)"/>
</g>
<g id="Frame_2" clip-path="url(#clip3_0_1)">
<path id="Vector_2" opacity="0.3" d="M-500.099 904.618C-320.039 866.847 -138.476 783.716 39.9657 825.304C174.497 856.075 290.212 956.044 428.333 964.481C569.293 973.263 694.549 886.455 825.367 834.337C956.185 782.219 1136.6 781.675 1204.24 904.911C1350.06 576.459 1520.38 259.635 1713.24 -43.4956C1243.01 -288.612 755.684 -499.778 256.536 -675.486C106.582 -728.599 -57.4434 -777.37 -208.133 -727.668C-382.103 -668.979 -692.266 -612.034 -774.66 -446.8C-920.053 -157.211 -848.191 260.72 -950.325 568.829C-1045.56 858.177 -750.635 958.031 -500.099 904.618Z" fill="#3BD1BB"/>
</g>
<g id="Frame_3" clip-path="url(#clip4_0_1)">
<path id="Vector_3" opacity="0.3" d="M-473.997 959.029C-295.626 913.951 -117.602 823.489 62.3867 857.77C198.06 883.033 317.753 978.202 456.104 981.003C597.304 984.032 718.918 892.192 847.503 834.786C976.089 777.379 1156.33 769.482 1228.94 889.859C1361.25 555.737 1518.52 232.235 1698.86 -78.504C1219.04 -304.252 723.505 -495.381 217.611 -650.6C65.6159 -697.557 -100.261 -739.602 -248.8 -683.8C-420.233 -618.069 -727.817 -548.531 -803.408 -380.076C-936.878 -84.8012 -848.042 329.853 -937.534 641.869C-1020.9 934.858 -722.148 1022.61 -473.997 959.029Z" fill="#3BD1BB"/>
</g>
<g id="Frame_4" clip-path="url(#clip5_0_1)">
<path id="Vector_4" opacity="0.3" d="M-473.997 959.029C-295.626 913.951 -117.602 823.489 62.3867 857.77C198.06 883.033 317.753 978.202 456.104 981.003C597.304 984.032 718.918 892.192 847.503 834.786C976.089 777.379 1156.33 769.482 1228.94 889.859C1361.25 555.737 1518.52 232.235 1698.86 -78.5041C1219.04 -304.253 723.505 -495.381 217.611 -650.6C65.6159 -697.557 -100.261 -739.602 -248.8 -683.8C-420.233 -618.07 -727.817 -548.531 -803.408 -380.076C-936.878 -84.8013 -848.042 329.853 -937.534 641.869C-1020.9 934.858 -722.148 1022.61 -473.997 959.029Z" fill="#3BD1BB"/>
</g>
<g id="Frame_5" opacity="0.3" clip-path="url(#clip6_0_1)">
<path id="Vector_5" d="M126.8 266.151C254.163 301.773 392.853 314.209 501.045 399.922C602.941 481.37 658.219 615.919 773.396 675.778C850.621 716.919 935.361 711.602 1017.38 721.593C1099.83 731.058 1197.58 769.678 1230.46 846.495C1390.12 670.926 1533.25 480.993 1658.81 279.33C1324.14 -2.70259 974.217 -267.386 611.651 -512.591C530.454 -567.495 438.65 -624.047 351.541 -617.158C285.183 -611.733 236.77 -569.74 193.112 -528.247C15.9348 -353.838 -452.408 102.647 126.8 266.151Z" fill="url(#paint1_linear_0_1)"/>
</g>
<g id="Frame_6" opacity="0.3" clip-path="url(#clip7_0_1)">
<path id="Vector_6" d="M-895.107 678.551C-825.336 566.203 -774.665 436.503 -662.15 356.551C-555.487 281.453 -410.855 265.947 -321.213 172.067C-260.143 109.404 -241.585 26.5499 -209.088 -49.4147C-176.975 -125.939 -112.594 -209.019 -29.6501 -219.144C-153.651 -421.475 -296.057 -611.956 -454.636 -788.827C-818.906 -546.232 -1170.78 -284.145 -1507.47 -4.47634C-1582.87 58.1587 -1662.81 130.518 -1680.52 216.086C-1693.84 281.319 -1667.03 339.532 -1639.38 393.04C-1521.39 611.873 -1213.85 1189.06 -895.107 678.551Z" fill="url(#paint2_linear_0_1)"/>
</g>
<g id="Frame_7" opacity="0.3" clip-path="url(#clip8_0_1)">
<path id="Vector_7" d="M-885.727 639.55C-803.86 535.684 -739.038 412.446 -618.306 345.543C-503.933 282.812 -358.473 283.537 -258.919 200.241C-191.24 144.781 -163.556 64.5142 -122.788 -7.35145C-82.3405 -79.8158 -9.09388 -155.197 74.4621 -156.006C-26.1955 -370.906 -146.466 -576.083 -284.326 -769.539C-673.383 -569.09 -1052.29 -347.889 -1418.08 -107.522C-1499.99 -53.688 -1587.51 9.30271 -1614.65 92.3611C-1635.16 155.701 -1615.02 216.541 -1593.51 272.799C-1500.67 503.428 -1259.43 1111.32 -885.727 639.55Z" fill="url(#paint3_linear_0_1)"/>
</g>
</g>
</g>
<g id="vector">
<g id="Group 6" opacity="0.36">
</g>
</g>
</g>
</g>
<g id="Header">
<g id="rectangle">
<g id="Rectangle 1" filter="url(#filter0_d_0_1)">
<rect x="-770" y="-120" width="1920" height="130" fill="white"/>
</g>
</g>
<g id="home rectangle">
<path id="Rectangle 14" d="M0 10C0 4.47715 4.47715 0 10 0H106C111.523 0 116 4.47715 116 10H0Z" fill="#1A7F72"/>
</g>
</g>
</g>
<defs>
<filter id="filter0_d_0_1" x="-810" y="-135" width="2000" height="210" filterUnits="userSpaceOnUse" color-interpolation-filters="sRGB">
<feFlood flood-opacity="0" result="BackgroundImageFix"/>
<feColorMatrix in="SourceAlpha" type="matrix" values="0 0 0 0 0 0 0 0 0 0 0 0 0 0 0 0 0 0 127 0" result="hardAlpha"/>
<feOffset dy="25"/>
<feGaussianBlur stdDeviation="20"/>
<feColorMatrix type="matrix" values="0 0 0 0 0.101961 0 0 0 0 0.498039 0 0 0 0 0.447059 0 0 0 0.1 0"/>
<feBlend mode="normal" in2="BackgroundImageFix" result="effect1_dropShadow_0_1"/>
<feBlend mode="normal" in="SourceGraphic" in2="effect1_dropShadow_0_1" result="shape"/>
</filter>
<linearGradient id="paint0_linear_0_1" x1="167" y1="-193.5" x2="167" y2="1241.5" gradientUnits="userSpaceOnUse">
<stop stop-color="#1A7F72"/>
<stop offset="1" stop-color="#7ADBAE"/>
</linearGradient>
<linearGradient id="paint1_linear_0_1" x1="387.136" y1="546.093" x2="1027.47" y2="-238.113" gradientUnits="userSpaceOnUse">
<stop stop-color="#1A7F72" stop-opacity="0"/>
<stop offset="1" stop-color="#1A7F72"/>
</linearGradient>
<linearGradient id="paint2_linear_0_1" x1="-553.602" y1="506.747" x2="-1127.8" y2="-327.101" gradientUnits="userSpaceOnUse">
<stop stop-color="#1A7F72" stop-opacity="0"/>
<stop offset="1" stop-color="#1A7F72"/>
</linearGradient>
<linearGradient id="paint3_linear_0_1" x1="-527.19" y1="506.91" x2="-1004.79" y2="-385.782" gradientUnits="userSpaceOnUse">
<stop stop-color="#1A7F72" stop-opacity="0"/>
<stop offset="1" stop-color="#1A7F72"/>
</linearGradient>
<clipPath id="clip0_0_1">
<rect width="1920" height="7514" fill="white" transform="translate(-770 -120)"/>
</clipPath>
<clipPath id="clip1_0_1">
<rect width="1920" height="1195" fill="white" transform="translate(-770 -120)"/>
</clipPath>
<clipPath id="clip2_0_1">
<rect width="2146.26" height="1773.67" fill="white" transform="translate(804.739 1659.95) rotate(-156.955)"/>
</clipPath>
<clipPath id="clip3_0_1">
<rect width="2151.67" height="1749.86" fill="white" transform="translate(775.946 1640.2) rotate(-154.62)"/>
</clipPath>
<clipPath id="clip4_0_1">
<rect width="2145.54" height="1750.07" fill="white" transform="translate(816.613 1635.89) rotate(-156.955)"/>
</clipPath>
<clipPath id="clip5_0_1">
<rect width="2146.04" height="1747.46" fill="white" transform="translate(815.991 1635.62) rotate(-156.955)"/>
</clipPath>
<clipPath id="clip6_0_1">
<rect width="1580.86" height="999.696" fill="white" transform="translate(955.878 1010.62) rotate(-140.767)"/>
</clipPath>
<clipPath id="clip7_0_1">
<rect width="955.685" height="609.913" fill="white" transform="translate(19.1558 112.461) rotate(145.448)"/>
</clipPath>
<clipPath id="clip8_0_1">
<rect width="959.178" height="666.589" fill="white" transform="translate(76.1586 184.225) rotate(151.853)"/>
</clipPath>
</defs>
</svg>
